<?xml version="1.0" encoding="UTF-8"?>
<svg id="Layer_2" data-name="Layer 2" xmlns="http://www.w3.org/2000/svg" viewBox="0 0 330.4 102.48">
  <defs>
    <style>
      .cls-1 {
        fill: #38713e;
      }

      .cls-1, .cls-2, .cls-3 {
        stroke-width: 0px;
      }

      .cls-2 {
        fill: #833637;
      }

      .cls-3 {
        fill: #1d1d1b;
      }
    </style>
  </defs>
  <g id="Ebene_1" data-name="Ebene 1">
    <g>
      <g>
        <path class="cls-2" d="M36.45,15.76L15.08,55.41.6,39.16c-.67-.74-.79-1.82-.32-2.7L19.26,1.25c.78-1.45,2.76-1.68,3.85-.45l13.34,14.96Z"/>
        <path class="cls-2" d="M60.7,23.59l-18.97,35.21c-.48.88-1.45,1.36-2.43,1.22l-21.59-3.17,21.37-39.66,19.88,2.93c1.63.24,2.52,2.02,1.74,3.47Z"/>
      </g>
      <g>
        <path class="cls-3" d="M103.99,43.05c1.08,1.58,1.62,3.49,1.62,5.74s-.58,4.27-1.73,5.96c-1.15,1.69-2.8,3-4.95,3.92-2.14.92-4.64,1.38-7.5,1.38h-16.76V21.43h15.22c4.65,0,8.07.85,10.25,2.56,2.18,1.71,3.27,4.13,3.27,7.25,0,3.71-1.63,6.43-4.89,8.16,2.56.85,4.39,2.06,5.47,3.64ZM84.34,37.15h5.06c1.5,0,2.65-.35,3.44-1.05.79-.7,1.18-1.71,1.18-3.03,0-2.5-1.59-3.75-4.78-3.75h-4.89v7.83ZM94.16,51.02c.82-.79,1.24-1.83,1.24-3.12,0-2.65-1.58-3.97-4.73-3.97h-6.32v8.27h6.1c1.65,0,2.89-.39,3.71-1.19Z"/>
        <path class="cls-3" d="M132.19,31.88c2.29,1.12,4.14,2.83,5.55,5.13,1.41,2.3,2.12,5.16,2.12,8.58s-.71,6.28-2.12,8.58c-1.41,2.3-3.26,4.01-5.55,5.13-2.29,1.12-4.77,1.68-7.45,1.68s-5.17-.56-7.47-1.68c-2.31-1.12-4.17-2.83-5.58-5.13-1.41-2.3-2.12-5.16-2.12-8.58s.71-6.28,2.12-8.58c1.41-2.3,3.27-4.01,5.58-5.13,2.31-1.12,4.8-1.68,7.47-1.68s5.16.56,7.45,1.68ZM120.34,40.1c-1.03,1.27-1.54,3.1-1.54,5.49s.51,4.22,1.54,5.49c1.03,1.27,2.49,1.9,4.4,1.9s3.36-.63,4.37-1.9c1.01-1.27,1.51-3.1,1.51-5.49s-.5-4.22-1.51-5.49c-1.01-1.27-2.46-1.9-4.37-1.9s-3.37.63-4.4,1.9Z"/>
        <path class="cls-3" d="M166.21,31.88c2.29,1.12,4.14,2.83,5.55,5.13,1.41,2.3,2.12,5.16,2.12,8.58s-.71,6.28-2.12,8.58c-1.41,2.3-3.26,4.01-5.55,5.13-2.29,1.12-4.77,1.68-7.45,1.68s-5.17-.56-7.47-1.68c-2.31-1.12-4.17-2.83-5.58-5.13-1.41-2.3-2.12-5.16-2.12-8.58s.71-6.28,2.12-8.58c1.41-2.3,3.27-4.01,5.58-5.13,2.31-1.12,4.8-1.68,7.47-1.68s5.16.56,7.45,1.68ZM154.36,40.1c-1.03,1.27-1.54,3.1-1.54,5.49s.51,4.22,1.54,5.49c1.03,1.27,2.49,1.9,4.4,1.9s3.36-.63,4.37-1.9c1.01-1.27,1.51-3.1,1.51-5.49s-.5-4.22-1.51-5.49c-1.01-1.27-2.46-1.9-4.37-1.9s-3.37.63-4.4,1.9Z"/>
        <path class="cls-3" d="M197.73,60.04l-7.25-10.75-2.47,2.76v8h-9.07V18.57h9.07v22.89l8.02-10.31h10.77l-10.55,11.69,12.04,17.21h-10.55Z"/>
        <path class="cls-3" d="M211.96,21.43h25.28v8.16h-15.78v9.15h13.74v8.16h-13.74v13.13h-9.51V21.43Z"/>
        <path class="cls-3" d="M251.53,60.04h-9.07V18.57h9.07v41.47Z"/>
        <path class="cls-3" d="M278.71,31.88c2.29,1.12,4.14,2.83,5.55,5.13,1.41,2.3,2.12,5.16,2.12,8.58s-.71,6.28-2.12,8.58c-1.41,2.3-3.26,4.01-5.55,5.13-2.29,1.12-4.77,1.68-7.45,1.68s-5.17-.56-7.47-1.68c-2.31-1.12-4.17-2.83-5.58-5.13-1.41-2.3-2.12-5.16-2.12-8.58s.7-6.28,2.12-8.58c1.41-2.3,3.27-4.01,5.58-5.13,2.31-1.12,4.8-1.68,7.47-1.68s5.16.56,7.45,1.68ZM266.87,40.1c-1.03,1.27-1.54,3.1-1.54,5.49s.51,4.22,1.54,5.49c1.03,1.27,2.49,1.9,4.4,1.9s3.36-.63,4.37-1.9c1.01-1.27,1.51-3.1,1.51-5.49s-.5-4.22-1.51-5.49c-1.01-1.27-2.46-1.9-4.37-1.9s-3.37.63-4.4,1.9Z"/>
        <path class="cls-3" d="M330.4,31.14l-10.55,28.9h-5.61l-5.61-16.16-6.16,16.16h-5.61l-9.67-28.9h8.85l4.51,16.88,5.55-16.88h5.72l5.39,16.93,4.4-16.93h8.79Z"/>
      </g>
      <path class="cls-1" d="M17.5,69c10.06,18.63,30.6,24.33,50.41,25.38,20.06,1.13,40.06-1.19,60.11-3.28,67.34-7.67,134.22-23.78,202.38-22.34,0,0,0,.8,0,.8-54.41,1.43-107.66,12.79-161.07,22.48-26.93,4.81-53.77,10.22-81.3,10.44-23.55-.11-52.02-2.83-66.63-23.87-1.94-2.92-3.47-6.06-4.64-9.29,0,0,.73-.33.73-.33h0Z"/>
    </g>
  </g>
</svg>