<?xml version="1.0" encoding="UTF-8"?>
<svg id="Ebene_2" xmlns="http://www.w3.org/2000/svg" viewBox="0 0 330.84 102.48">
    <defs>
        <style>
            .cls-1{fill:#833637;}.cls-2{fill:#38713e;}.cls-3{letter-spacing:0em;}.cls-4{letter-spacing:-.03em;}.cls-5{fill:#1d1d1b;font-family:MotivaSans-Extrabold,
            'Motiva Sans';font-size:55.15px;font-weight:700;}
        </style>
    </defs>
    <g id="Ebene_1-2">
        <path class="cls-1"
              d="m36.45,15.76L15.08,55.41.6,39.16c-.67-.74-.79-1.82-.32-2.7L19.26,1.25c.78-1.45,2.76-1.68,3.85-.45l13.34,14.96Z"/>
        <path class="cls-1"
              d="m60.7,23.59l-18.97,35.21c-.48.88-1.45,1.36-2.43,1.22l-21.59-3.17,21.37-39.66,19.88,2.93c1.63.24,2.52,2.02,1.74,3.47Z"/>
        <text class="cls-5" transform="translate(70.94 60.04)">
            <tspan x="0" y="0">BookF</tspan>
            <tspan class="cls-3" x="168.92" y="0">l</tspan>
            <tspan class="cls-4" x="183.93" y="0">o</tspan>
            <tspan x="216.58" y="0">w</tspan>
        </text>
        <path class="cls-2"
              d="m17.5,69c10.06,18.63,30.6,24.33,50.41,25.38,20.06,1.13,40.06-1.19,60.11-3.28,67.34-7.67,134.22-23.78,202.38-22.34,0,0,0,.8,0,.8-54.41,1.43-107.66,12.79-161.07,22.48-26.93,4.81-53.77,10.22-81.3,10.44-23.55-.11-52.02-2.83-66.63-23.87-1.94-2.92-3.47-6.06-4.64-9.29,0,0,.73-.33.73-.33h0Z"/>
    </g>
</svg>