<svg width="34" height="33" viewBox="0 0 34 33" fill="none" xmlns="http://www.w3.org/2000/svg">
<path d="M0 33V27H34V33H0ZM6.8 21H9.18L22.44 9.3375L20.0175 7.2L6.8 18.9V21ZM3.4 24V17.625L22.44 0.8625C22.7517 0.5875 23.1129 0.375 23.5238 0.225C23.9346 0.075 24.3667 0 24.82 0C25.2733 0 25.7125 0.075 26.1375 0.225C26.5625 0.375 26.945 0.6 27.285 0.9L29.6225 3C29.9625 3.275 30.2104 3.6 30.3663 3.975C30.5221 4.35 30.6 4.7375 30.6 5.1375C30.6 5.5125 30.5221 5.88125 30.3663 6.24375C30.2104 6.60625 29.9625 6.9375 29.6225 7.2375L10.625 24H3.4Z" fill="#4E2323"/>
</svg>
