<svg width="29" height="24" viewBox="0 0 29 24" fill="none" xmlns="http://www.w3.org/2000/svg">
<path d="M18.6871 23.0729L13.0016 17.8691L14.857 16.1281L18.6696 19.6178L26.1577 12.5916L28.0306 14.3058L18.6871 23.0729ZM13.359 9.53678L23.9803 3.2902L2.67554 3.44339L13.359 9.53678ZM13.3715 12.0048L2.68798 5.91138L2.75021 18.2514L9.60767 18.2021L12.2832 20.6509L2.76265 20.7194C2.0303 20.7246 1.40215 20.4875 0.878189 20.0079C0.35423 19.5283 0.0905388 18.9492 0.0871164 18.2705L0.0124452 3.46253C0.00902277 2.78383 0.266854 2.20095 0.785939 1.71389C1.30502 1.22682 1.93074 0.980655 2.66309 0.975389L23.9678 0.8222C24.7002 0.816935 25.3283 1.05408 25.8523 1.53365C26.3762 2.01322 26.6399 2.59235 26.6434 3.27105L26.6704 8.63894L24.0198 11.1261L23.9927 5.75819L13.3715 12.0048Z" fill="#38703E"/>
</svg>
