<svg width="28" height="26" viewBox="0 0 28 26" fill="none" xmlns="http://www.w3.org/2000/svg">
<path d="M12.7091 12.3646L2.54182 6.01003V18.7191H12.7091C12.7091 19.1639 12.7409 19.5929 12.8044 20.0059C12.868 20.419 12.9633 20.8373 13.0904 21.2609H2.54182C1.84282 21.2609 1.24443 21.0121 0.746659 20.5143C0.248886 20.0165 0 19.4181 0 18.7191V3.46821C0 2.76921 0.248886 2.17082 0.746659 1.67305C1.24443 1.17528 1.84282 0.926392 2.54182 0.926392H22.8764C23.5754 0.926392 24.1737 1.17528 24.6715 1.67305C25.1693 2.17082 25.4182 2.76921 25.4182 3.46821V10.7124C25.0369 10.5218 24.6292 10.3629 24.1949 10.2358C23.7607 10.1087 23.3212 10.0134 22.8764 9.94985V6.01003L12.7091 12.3646ZM12.7091 9.82275L22.8764 3.46821H2.54182L12.7091 9.82275ZM21.6055 25.0737C19.8474 25.0737 18.3488 24.4541 17.1096 23.215C15.8705 21.9758 15.2509 20.4772 15.2509 18.7191C15.2509 16.961 15.8705 15.4624 17.1096 14.2233C18.3488 12.9841 19.8474 12.3646 21.6055 12.3646C23.3635 12.3646 24.8622 12.9841 26.1013 14.2233C27.3404 15.4624 27.96 16.961 27.96 18.7191C27.96 20.4772 27.3404 21.9758 26.1013 23.215C24.8622 24.4541 23.3635 25.0737 21.6055 25.0737ZM17.7927 19.3546H25.4182V18.0837H17.7927V19.3546Z" fill="#4E2323"/>
</svg>
