<svg width="15" height="22" viewBox="0 0 15 22" fill="none" xmlns="http://www.w3.org/2000/svg">
<path d="M5.82353 22V19.4118H3.23529V16.8235H5.82353V14.1059C4.11961 13.8039 2.72304 12.9897 1.63382 11.6632C0.544608 10.3368 0 8.8 0 7.05294C0 5.0902 0.695588 3.42402 2.08676 2.05441C3.47794 0.684804 5.1549 0 7.11765 0C9.08039 0 10.7574 0.684804 12.1485 2.05441C13.5397 3.42402 14.2353 5.0902 14.2353 7.05294C14.2353 8.8 13.6907 10.3368 12.6015 11.6632C11.5123 12.9897 10.1157 13.8039 8.41177 14.1059V16.8235H11V19.4118H8.41177V22H5.82353ZM7.11765 11.6471C8.36863 11.6471 9.43627 11.2049 10.3206 10.3206C11.2049 9.43627 11.6471 8.36863 11.6471 7.11765C11.6471 5.86667 11.2049 4.79902 10.3206 3.91471C9.43627 3.03039 8.36863 2.58824 7.11765 2.58824C5.86667 2.58824 4.79902 3.03039 3.91471 3.91471C3.03039 4.79902 2.58824 5.86667 2.58824 7.11765C2.58824 8.36863 3.03039 9.43627 3.91471 10.3206C4.79902 11.2049 5.86667 11.6471 7.11765 11.6471Z" fill="#4E2323"/>
</svg>
