<svg width="22" height="22" viewBox="0 0 22 22" fill="none" xmlns="http://www.w3.org/2000/svg">
<path d="M22 0V8.25H19.25V4.70937L13.7844 10.1406C14.2198 10.7823 14.5521 11.4641 14.7812 12.1859C15.0104 12.9078 15.125 13.6583 15.125 14.4375C15.125 16.5458 14.3917 18.3333 12.925 19.8C11.4583 21.2667 9.67083 22 7.5625 22C5.45417 22 3.66667 21.2667 2.2 19.8C0.733333 18.3333 0 16.5458 0 14.4375C0 12.3292 0.733333 10.5417 2.2 9.075C3.66667 7.60833 5.45417 6.875 7.5625 6.875C8.31875 6.875 9.06354 6.98385 9.79688 7.20156C10.5302 7.41927 11.2063 7.75729 11.825 8.21562L17.2906 2.75H13.75V0H22ZM7.5625 9.625C6.23333 9.625 5.09896 10.0948 4.15938 11.0344C3.21979 11.974 2.75 13.1083 2.75 14.4375C2.75 15.7667 3.21979 16.901 4.15938 17.8406C5.09896 18.7802 6.23333 19.25 7.5625 19.25C8.89167 19.25 10.026 18.7802 10.9656 17.8406C11.9052 16.901 12.375 15.7667 12.375 14.4375C12.375 13.1083 11.9052 11.974 10.9656 11.0344C10.026 10.0948 8.89167 9.625 7.5625 9.625Z" fill="#4E2323"/>
</svg>
